<svg width="318" height="318" xmlns="http://www.w3.org/2000/svg" xmlns:xlink="http://www.w3.org/1999/xlink"><defs><path id="a" d="M.908.166h318v318h-318z"/></defs><g fill="none" fill-rule="evenodd"><mask id="b" fill="#fff"><use xlink:href="#a"/></mask><circle fill="#C60A76" mask="url(#b)" cx="159" cy="159" r="159"/><path d="M128.73 128.063c-10.107 0-17.848 3.12-23.227 9.36-5.388 6.236-8.075 15.061-8.075 26.476 0 11.548 2.983 20.437 8.955 26.672 5.972 6.246 14.009 9.356 24.116 9.356 5.383 0 9.941-.727 13.688-2.186a94.092 94.092 0 0010.728-4.978 19.846 19.846 0 015.214 6.668c1.244 2.59 1.871 5.612 1.871 9.061 0 5.445-2.988 10.054-8.955 13.833-5.977 3.783-15.063 5.675-27.27 5.675-8.794 0-17.06-1.263-24.805-3.784-7.74-2.516-14.5-6.397-20.277-11.645-5.773-5.243-10.33-11.872-13.678-19.906-3.348-8.03-5.015-17.621-5.015-28.766 0-10.353 1.603-19.473 4.815-27.375 3.212-7.891 7.61-14.564 13.198-20.009 5.568-5.434 12.104-9.552 19.582-12.338 7.478-2.791 15.486-4.177 24.018-4.177 12.07 0 21.42 1.985 28.052 5.965 6.623 3.98 9.941 9.096 9.941 15.336 0 3.45-.86 6.437-2.565 8.953-1.7 2.521-3.674 4.516-5.9 5.976a63.986 63.986 0 00-10.927-5.774c-3.868-1.592-8.363-2.393-13.484-2.393M254.962 150c.151.905.363 2.242.635 4.014.267 1.77.403 3.564.403 5.373 0 1.814-.11 3.44-.343 4.886-.231 1.44-.695 2.654-1.385 3.645-.685.986-1.622 1.744-2.811 2.28-1.19.542-2.74.802-4.655.802h-46.773a206.94 206.94 0 01-.635-4.014 35.905 35.905 0 01-.398-5.373c0-1.809.11-3.44.343-4.88.231-1.441.69-2.66 1.375-3.646.69-.985 1.632-1.75 2.821-2.285 1.184-.537 2.736-.802 4.655-.802h46.768z" fill="#FFF"/><path d="M254.962 150c.151.905.363 2.242.635 4.014.267 1.77.403 3.564.403 5.373 0 1.814-.11 3.44-.343 4.886-.231 1.44-.695 2.654-1.385 3.645-.685.986-1.622 1.744-2.811 2.28-1.19.542-2.74.802-4.655.802h-46.773a206.94 206.94 0 01-.635-4.014 35.905 35.905 0 01-.398-5.373c0-1.809.11-3.44.343-4.88.231-1.441.69-2.66 1.375-3.646.69-.985 1.632-1.75 2.821-2.285 1.184-.537 2.736-.802 4.655-.802h46.768z" stroke="#FFF" stroke-width=".947"/><path d="M228 216.107c-.469.739-1.158 1.815-2.086 3.235a32.486 32.486 0 01-3.085 4c-1.13 1.244-2.225 2.284-3.282 3.107-1.052.823-2.12 1.314-3.205 1.488-1.072.169-2.181 0-3.31-.507-1.134-.517-2.34-1.482-3.631-2.896L178 189.894c.464-.738 1.158-1.814 2.08-3.239a32.431 32.431 0 013.086-3.994c1.134-1.25 2.23-2.284 3.277-3.108 1.058-.823 2.124-1.319 3.205-1.487 1.082-.175 2.187 0 3.32.506 1.13.517 2.34 1.483 3.627 2.897L228 216.107z" fill="#FFF"/><path d="M228 216.107c-.469.739-1.158 1.815-2.086 3.235a32.486 32.486 0 01-3.085 4c-1.13 1.244-2.225 2.284-3.282 3.107-1.052.823-2.12 1.314-3.205 1.488-1.072.169-2.181 0-3.31-.507-1.134-.517-2.34-1.482-3.631-2.896L178 189.894c.464-.738 1.158-1.814 2.08-3.239a32.431 32.431 0 013.086-3.994c1.134-1.25 2.23-2.284 3.277-3.108 1.058-.823 2.124-1.319 3.205-1.487 1.082-.175 2.187 0 3.32.506 1.13.517 2.34 1.483 3.627 2.897L228 216.107z" stroke="#FFF" stroke-width=".947"/><path d="M196.595 137.529c-1.287 1.419-2.493 2.384-3.627 2.896-1.129.512-2.238.68-3.315.512-1.086-.174-2.148-.67-3.205-1.488-1.052-.823-2.143-1.862-3.282-3.108a32.377 32.377 0 01-3.08-3.999c-.928-1.419-1.622-2.5-2.086-3.234l31.405-34.637c1.287-1.419 2.493-2.384 3.631-2.896 1.13-.512 2.234-.68 3.31-.512 1.082.174 2.149.67 3.206 1.493 1.057.818 2.148 1.857 3.277 3.103a32.113 32.113 0 013.09 4.004c.923 1.42 1.617 2.496 2.081 3.234l-31.405 34.632z" fill="#FFF"/><path d="M196.595 137.529c-1.287 1.419-2.493 2.384-3.627 2.896-1.129.512-2.238.68-3.315.512-1.086-.174-2.148-.67-3.205-1.488-1.052-.823-2.143-1.862-3.282-3.108a32.377 32.377 0 01-3.08-3.999c-.928-1.419-1.622-2.5-2.086-3.234l31.405-34.637c1.287-1.419 2.493-2.384 3.631-2.896 1.13-.512 2.234-.68 3.31-.512 1.082.174 2.149.67 3.206 1.493 1.057.818 2.148 1.857 3.277 3.103a32.113 32.113 0 013.09 4.004c.923 1.42 1.617 2.496 2.081 3.234l-31.405 34.632z" stroke="#FFF" stroke-width=".947"/></g></svg>