<svg width="497" height="497" xmlns="http://www.w3.org/2000/svg"><g fill-rule="nonzero" fill="none"><path d="M284.108 159.028l-.41-.17.41.17zm-66.62-2a96.5 96.5 0 0161.08 0l112-112c-85.515-60.037-199.486-60.037-285 0l111.92 112zm68.67 2.92l.52.22-.52-.22zm2.49 1.12l.46.21-.46-.21zm-110.37 152.96l-.19-.21.19.21zm-5.51-6.36l.21.26-.21-.26zm1.65 2c.12.14.23.28.35.41-.12-.15-.23-.29-.35-.43v.02zm1.74 2l.36.4-.36-.4zm135.51-135.51l.4.36-.4-.36zm-142.13 127.16l-.1-.15.1.15zm126.67-138.29l.34.19-.34-.19zm11.42 7.78l.26.21-.26-.21zm6.36 5.51l-.21-.19.21.19zm-3.96-3.55l-.42-.35.42.35zm-11.6-8.43l.47.29-.47-.29zm4.68 3.09l.17.12-.17-.12zm-2-1.35l-.43-.29.43.29zm-9.71-5.68l-.1-.05.1.05zm-123.61 32.91c.1-.14.19-.28.28-.42-.04.14-.18.28-.28.42zm-1.45 2.28l.29-.46-.29.46zm-1.31 2.25l.19-.32-.19.32zm7.78-11.41l.21-.26-.21.26zm2-2.43c-.12.13-.23.27-.35.41.08-.14.19-.28.31-.38l.04-.03zm-5.33 6.89l.1-.15-.1.15zm-8.2 14.07c-.07.14-.13.29-.2.43.03-.14.09-.29.16-.43h.04zm5.39 92l-.29-.46.29.46zm-1.45-2.39l-.19-.32.19.32zm2.61 4.21c.1.14.19.28.28.42-.08-.17-.22-.31-.32-.45l.04.03zm-6.8-12.11c.07.14.13.29.2.43-.06-.14-.12-.29-.2-.43zm-2-76.7c0 .13-.1.25-.16.38.07-.13.16-.25.16-.38zm1.09-2.58c-.07.17-.15.34-.22.5.13-.16.13-.33.23-.5h-.01zm-.22 76.78c.07.16.15.33.22.5-.09-.17-.09-.34-.21-.5h-.01zm-1-2.46c.06.13.11.25.16.38-.03-.13-.12-.25-.18-.38h.02zm172-84.19l.19.32-.19-.32zm-11.36 112.51l.36-.4-.36.4zm-1.57 1.71l-.19.21.19-.21zm-.19-131.71l.19.21-.19-.21zm3.51 128c.12-.13.23-.27.35-.41-.12.17-.23.31-.35.41zm2-121.63l-.21-.26.21.26zm0 119.2l-.21.26.21-.26zm-1.65-121.22c-.12-.14-.23-.28-.35-.41.12.16.23.3.35.44v-.03zm-1.74-2l-.36-.4.36.4zm6.62 8.35l.1.15-.1-.15zm.1 110.43l-.1.15.1-.15zm63.9-258.13c1.333.94 2.666 1.89 4 2.85-1.334-.954-2.667-1.904-4-2.85zm-54.59 241.64c.07-.17.15-.34.22-.5-.07.16-.12.33-.22.5zm1.09-2.58c.05-.13.1-.25.16-.38-.06.13-.15.25-.15.38h-.01zm-8.75 16.66l-.28.42.28-.42zm1.45-2.28l-.29.46.29-.46zm1.35-2.25l-.19.32.19-.32zm3.75-7.12c.07-.14.13-.29.2-.43-.07.14-.13.29-.2.43zm106.21-196.86c-.94-1.167-1.89-2.32-2.85-3.46.926 1.14 1.876 2.293 2.85 3.46zm-3.51-4.21c-1-1.18-2-2.35-3-3.51 1 1.19 2.01 2.36 3 3.51zm6.87 8.5a522.094 522.094 0 00-2.76-3.5 266.49 266.49 0 012.76 3.53v-.03zm3.36 4.44c-.91-1.23-1.83-2.44-2.75-3.65.92 1.24 1.84 2.45 2.75 3.71v-.06zm-119.48 94.34l-.28-.42.28.42zm66.76-147a187.55 187.55 0 013.66 2.76 137.922 137.922 0 00-3.66-2.76zm12.23 9.62c-1.147-.96-2.304-1.91-3.47-2.85 1.18.94 2.346 1.89 3.5 2.85h-.03zm-4.23-3.5c-1.16-.934-2.33-1.857-3.51-2.77 1.166.913 2.336 1.836 3.51 2.77zm8.5 7.13c-1.16-1.02-2.33-2.02-3.51-3 1.166.98 2.33 1.98 3.49 3h.02zm-75.38 148.33c-.07-.16-.15-.33-.22-.5.1.17.15.34.22.5zm-159.63-25.86l-.36.4.36-.4zm158.51 23.36c-.07-.14-.13-.29-.2-.43.06.14.12.29.2.43zm113.16-105.8c1 1.31 1.9 2.62 2.84 3.94-.95-1.32-1.89-2.63-2.85-3.94h.01zm-118.76 95.54l.29.46-.29-.46zm82.53-135.18a248.82 248.82 0 0122.14 22.15 250.17 250.17 0 00-22.14-22.15zm-74.78 150.4a6.15 6.15 0 01-.16-.38c.01.13.1.25.16.38zm113.85 178.17c60.037-85.515 60.037-199.486 0-285l-112 111.97a96.5 96.5 0 010 61.08l112 111.95zm-238.67-53.34l-.41-.17.41.17zm-2.46-1l-.52-.22.52.22zm104.13-18.4l-.21.19.21-.19zm-12.86 10.25l-.43.29.43-.29zm2-1.35l.17-.12-.17.12zm4.48-3.34l.26-.21-.26.21zm4-3.39l.4-.36-.4.36zm-1.6 1.39l-.42.35.42-.35zm-102.64 13.69l-.46-.21.46.21zm-19-11.74l-.26-.21.26.21zm-4-3.39l-.4-.36.4.36zm-6.3-137.62l.19-.21-.19.21zm4 135.5l.21.19-.21-.19zm15.52 11.94l-.47-.29.47.29zm2.26 1.35l-.34-.19.34.19zm78.72 8a96.5 96.5 0 01-61.08 0l-111.99 111.96c85.514 60.037 199.485 60.037 285 0l-111.93-111.96zm-83.72-11.04l.43.29-.43-.29zm-2-1.35l-.17-.12.17.12zm215.14 110.84c1.18-.994 2.35-1.994 3.51-3-1.18 1.006-2.35 2.006-3.51 3zm43-47c-.93 1.33-1.88 2.64-2.84 3.95.95-1.31 1.9-2.62 2.84-3.95zm-47.21 50.51c1.16-.94 2.316-1.89 3.47-2.85a287.617 287.617 0 00-3.47 2.85zm-4.32 3.42c1.18-.92 2.35-1.844 3.51-2.77l-3.51 2.72v.05zm48.25-49.42a262.313 262.313 0 01-2.76 3.66 114.025 114.025 0 002.76-3.66zm-10.23 13c-1 1.18-2 2.35-3 3.51 1-1.19 2.01-2.36 3-3.51zm3.46-4.18c-.94 1.16-1.89 2.316-2.85 3.47a670.82 670.82 0 012.9-3.5l-.05.03zm.65-.81c.926-1.16 1.85-2.33 2.77-3.51a896.3 896.3 0 01-2.77 3.5v.01zm-150.17-69.38zm-5.3 2.49l.52-.22-.52.22zm12.31-6.43l.47-.29-.47.29zm-9.82 5.31l.46-.21-.46.21zm7.56-4l.34-.19-.34.19zm137.9 80.89a248.94 248.94 0 01-22.15 22.15 248.94 248.94 0 0022.15-22.11v-.04zm-39.63 36.21c-1.334.96-2.667 1.91-4 2.85 1.36-.914 2.693-1.85 4-2.81v-.04zm-110.37-111.1l-.41.17.41-.17zm110.92 110.72a262.313 262.313 0 003.66-2.76 114.025 114.025 0 01-3.66 2.76zm-209-126.46l.42.35-.42-.35zM61.958 84.098a248.82 248.82 0 0122.14-22.15 250.17 250.17 0 00-22.14 22.15zm30.28-29c-1.16.94-2.317 1.89-3.47 2.85 1.153-.974 2.31-1.93 3.47-2.87v.02zm90 123l-.21.19.21-.19zm4.13-3.67l-.42.35.42-.35zm-84.79-126.54c1.333-.96 2.666-1.91 4-2.85-1.354.94-2.687 1.89-4 2.85zm86.59 125.14l.26-.21-.26.21zm-91.61-121.37zm.78-.59a187.555 187.555 0 013.66-2.76c-1.227.913-2.447 1.82-3.66 2.72v.04zm87.05 125.09l-.4.36.4-.36zm22.56-14.92l.46-.21-.46.21zm-2.25 1.11l-.1.05.1-.05zm4.68-2.22l.52-.22-.52.22zm2.57-1.08l.41-.17-.41.17zm-17.06 9l.43-.29-.43.29zm5-3.09l-.34.19.34-.19zm-7.11 4.56l.17-.12-.17.12zm4.38-2.92l.47-.29-.47.29zm-108.39 271.53zm-33.69-34.31c.94 1.16 1.89 2.316 2.85 3.47-.96-1.147-1.91-2.304-2.85-3.47zm3.46 4.21c1 1.18 2 2.35 3 3.51-1-1.19-2.01-2.36-3-3.51zm-10.23-13a187.55 187.55 0 002.76 3.66 137.922 137.922 0 01-2.76-3.66zm3.35 4.44c.913 1.2 1.836 2.386 2.77 3.56a338.104 338.104 0 01-2.77-3.53v-.03zm32.89 35c1.16 1.02 2.33 2.02 3.51 3-1.18-.96-2.35-1.95-3.51-2.97v-.03zm12.79 10.56a187.55 187.55 0 003.66 2.76 528.105 528.105 0 00-3.66-2.76zm8.2 6c-1.334-.94-2.667-1.89-4-2.85 1.34.953 2.673 1.903 4 2.85zm-12.51-9.4zm-45.15-47.16c-1-1.31-1.9-2.62-2.84-3.95.99 1.33 1.88 2.64 2.84 3.95zm10.05-305.69zm-9.61 12.25c.9-1.23 1.82-2.45 2.74-3.65-.92 1.17-1.84 2.39-2.74 3.65zm6.11-8c-.934 1.16-1.854 2.33-2.76 3.51a394.61 394.61 0 012.76-3.51zm7.12-8.5c-1 1.16-2 2.33-3 3.51.98-1.16 1.99-2.33 3-3.49v-.02zm23-23c1.16-1.02 2.33-2.02 3.51-3-1.18 1-2.35 2.01-3.51 3.03v-.03zm-.45 372.55a248.94 248.94 0 01-22.15-22.15 248.94 248.94 0 0022.15 22.18v-.03zm72.93-155.51a96.5 96.5 0 010-61.08l-112-111.95c-60.037 85.514-60.037 199.485 0 285l112-111.97zm-109.11-177c-.96 1.333-1.907 2.643-2.84 3.93.906-1.3 1.84-2.6 2.8-3.9l.04-.03z" fill="#9ABDE1"/><path d="M339.028 217.488l112-111.95a249.4 249.4 0 00-60.51-60.51l-111.95 112a96.26 96.26 0 0160.46 60.46zm-182 61.08l-112 112a249.4 249.4 0 0060.5 60.5l111.96-112.04a96.26 96.26 0 01-60.46-60.46zm-112-173l112 112a96.26 96.26 0 0160.5-60.5l-111.99-112.04a249.4 249.4 0 00-60.51 60.51v.03zm233.54 233.46l112 112a249.4 249.4 0 0060.5-60.5l-112.04-111.96a96.26 96.26 0 01-60.46 60.46z" fill="#2A70B2"/></g></svg>